<svg width="24" height="24" fill="none" xmlns="http://www.w3.org/2000/svg"><path d="M23.193 6.463A.75.75 0 0022.5 6h-2.853a4.562 4.562 0 00-3.887-2.25 4.398 4.398 0 00-3.164 1.284A4.49 4.49 0 0011.25 8.25v.57c-3.774-.994-6.86-4.064-6.894-4.097a.75.75 0 00-1.28.461c-.404 4.48.897 7.479 2.063 9.205.568.853 1.26 1.617 2.05 2.269-1.427 1.643-3.675 2.506-3.7 2.516a.75.75 0 00-.36 1.118c.07.105.351.474 1.038.818.85.425 1.972.64 3.333.64 6.626 0 12.162-5.101 12.727-11.665L23.03 7.28a.75.75 0 00.162-.818zM18.974 9.22a.75.75 0 00-.217.482C18.375 15.617 13.433 20.25 7.5 20.25c-.99 0-1.687-.131-2.177-.289 1.08-.586 2.584-1.594 3.552-3.045a.75.75 0 00-.25-1.065c-.044-.025-4.116-2.47-4.125-9 1.5 1.219 4.242 3.11 7.376 3.637a.75.75 0 00.874-.738v-1.5a3 3 0 01.9-2.149 2.9 2.9 0 012.09-.851c1.188.015 2.297.739 2.76 1.8a.75.75 0 00.688.45h1.5l-1.714 1.72z" fill="#151515"/></svg>