<svg width="24" height="24" viewBox="0 0 24 24" fill="none" xmlns="http://www.w3.org/2000/svg">
<path d="M23.1931 6.46302C23.1363 6.32596 23.0402 6.20881 22.9169 6.12637C22.7936 6.04394 22.6486 5.99992 22.5002 5.99989H19.6474C19.2486 5.32131 18.6809 4.75747 17.9997 4.36321C17.3184 3.96894 16.5467 3.75765 15.7596 3.74989C15.1732 3.7422 14.5912 3.85187 14.0478 4.07244C13.5045 4.29301 13.0107 4.62003 12.5956 5.03427C12.1683 5.45354 11.8292 5.954 11.5982 6.50622C11.3671 7.05845 11.2488 7.65129 11.2502 8.24989V8.82083C7.47587 7.8252 4.38868 4.75489 4.35587 4.72208C4.25525 4.62057 4.12772 4.54992 3.98829 4.51846C3.84887 4.487 3.70335 4.49603 3.56889 4.5445C3.43443 4.59296 3.31662 4.67884 3.22932 4.79202C3.14203 4.9052 3.0889 5.04096 3.07618 5.18333C2.67212 9.66364 3.97337 12.6618 5.13868 14.3877C5.70688 15.2409 6.3981 16.0054 7.18993 16.6565C5.76212 18.2999 3.51399 19.1633 3.48962 19.1727C3.38379 19.2123 3.28828 19.2754 3.21024 19.3571C3.1322 19.4389 3.07363 19.5372 3.03893 19.6447C3.00422 19.7523 2.99426 19.8663 3.00981 19.9782C3.02535 20.0901 3.06599 20.1971 3.12868 20.2911C3.19899 20.3961 3.48024 20.7646 4.16743 21.1086C5.01681 21.5343 6.13899 21.7499 7.50024 21.7499C14.1256 21.7499 19.6615 16.648 20.2268 10.0836L23.0309 7.28052C23.1357 7.17557 23.2071 7.04188 23.236 6.89637C23.2648 6.75085 23.2499 6.60004 23.1931 6.46302ZM18.9743 9.2202C18.8457 9.3491 18.7684 9.52038 18.7568 9.70208C18.3752 15.6168 13.4327 20.2499 7.50024 20.2499C6.51024 20.2499 5.81274 20.1186 5.32337 19.9611C6.40243 19.3752 7.90712 18.3674 8.87462 16.9161C8.9314 16.8308 8.97009 16.7347 8.9883 16.6339C9.00651 16.533 9.00384 16.4295 8.98047 16.3297C8.9571 16.2299 8.91353 16.1359 8.85243 16.0536C8.79133 15.9713 8.71401 15.9024 8.62524 15.8511C8.58118 15.8258 4.50868 13.3818 4.50024 6.85114C6.00024 8.06989 8.74243 9.96083 11.8756 10.4877C11.9829 10.5058 12.093 10.5003 12.198 10.4716C12.3031 10.4429 12.4006 10.3916 12.4838 10.3214C12.5671 10.2512 12.634 10.1637 12.68 10.065C12.726 9.96632 12.75 9.85879 12.7502 9.74989V8.24989C12.7494 7.84981 12.8286 7.45361 12.9832 7.08459C13.1377 6.71557 13.3645 6.3812 13.6502 6.10114C13.9241 5.82673 14.2503 5.61002 14.6094 5.46381C14.9684 5.3176 15.3532 5.24486 15.7409 5.24989C16.9277 5.26489 18.0368 5.98864 18.5009 7.05083C18.5594 7.18437 18.6555 7.29797 18.7776 7.37772C18.8996 7.45748 19.0423 7.49993 19.1881 7.49989H20.6881L18.9743 9.2202Z" fill="#151515"/>
</svg>
